# xmcd
#
# Track frame offsets:
#	150
#	21592
#	33402
#	43779
#	60790
#	75202
#	81900
#	95551
#	106826
#	121026
#	137792
#	162525
#
# Disc length: 2340 seconds
#
# Revision: 2
# Processed by: cddbd v1.5.1PL0 Copyright (c) Steve Scherf et al.
# Submitted via: EasyCDDAExtractor 8.0.0.2
#
DISCID=8f09220c
DTITLE=John Denver - John Denver Back Home Again
DYEAR=1974
DGENRE=Country
TTITLE0=Back Home Again
TTITLE1=On The Road
TTITLE2=Grandma's Feather Bed
TTITLE3=Matthew
TTITLE4=Thank God I'm  a Country Boy
TTITLE5=The Music is You
TTITLE6=Annies Song
TTITLE7=It's Up To You
TTITLE8=Cool an Green an Shady
TTITLE9=Eclipse
TTITLE10=Sweet Surrender
TTITLE11=This Old Guitar
EXTD=
EXTT0=
EXTT1=
EXTT2=
EXTT3=
EXTT4=
EXTT5=
EXTT6=
EXTT7=
EXTT8=
EXTT9=
EXTT10=
EXTT11=
PLAYORDER=
